#!OML:ASF F:\VICON\USERDATA\INSTALL\rory3\rory3.ASF
:FULLY-SPECIFIED
:DEGREES
540
root 4.53598 15.8554 2.19318 22.5721 -8.20703 0.576296
lowerback 11.9102 -1.76532 1.91589
upperback 2.96523 -2.08748 0.350871
thorax -3.62358 -1.045 -0.404339
lowerneck -13.7935 -0.788962 -2.9574
upperneck 34.6911 0.163449 -1.66142
head 14.1749 -0.579676 -0.135357
rclavicle 3.13086e-014 -2.22887e-014
rhumerus -60.2157 52.4235 -63.3868
rradius 72.5092
rwrist -22.2716
rhand -7.62607 -41.7852
rfingers 7.12502
rthumb 18.2686 -70.9473
lclavicle 3.13086e-014 -2.22887e-014
lhumerus -49.6977 -64.678 55.4686
lradius 66.5224
lwrist 46.47
lhand -15.7682 -25.8809
lfingers 7.12502
lthumb 10.4238 3.84075
rfemur -78.7842 -5.45366 22.416
rtibia 40.3063
rfoot 38.2169 -1.47648
rtoes 6.0259
lfemur -55.061 -1.45528 -30.8816
ltibia 58.1449
lfoot -23.857 4.87636
ltoes 16.0937
541
root 4.53314 15.8579 2.19327 22.5336 -8.12419 0.45753
lowerback 12.046 -1.83901 1.98967
upperback 2.89152 -2.16724 0.434854
thorax -3.77617 -1.08577 -0.340635
lowerneck -13.701 -0.788821 -3.09145
upperneck 34.8012 0.186503 -1.62992
head 14.205 -0.585515 -0.0962043
rclavicle 2.90971e-014 -1.963e-015
rhumerus -60.5044 52.6756 -63.7712
rradius 72.2044
rwrist -21.763
rhand -7.31941 -41.2222
rfingers 7.12502
rthumb 18.5636 -70.3565
lclavicle 2.90971e-014 -1.963e-015
lhumerus -50.274 -64.3931 55.7798
lradius 66.3446
lwrist 45.6625
lhand -15.3894 -26.1707
lfingers 7.12502
lthumb 10.7892 3.53218
rfemur -78.7756 -5.45098 22.5411
rtibia 40.472
rfoot 38.2073 -1.39732
rtoes 6.34592
lfemur -55.0558 -1.36292 -30.7607
ltibia 58.2637
lfoot -23.9274 4.80067
ltoes 15.9674
542
root 4.53476 15.8607 2.19859 22.5031 -8.07846 0.334625
lowerback 12.0366 -1.91625 2.12783
upperback 2.90247 -2.25143 0.458263
thorax -3.76569 -1.12815 -0.38152
lowerneck -13.4533 -0.790994 -3.29301
upperneck 34.6621 0.148172 -1.41197
head 14.086 -0.596835 0.0234785
rclavicle 1.85367e-014 -1.23246e-014
rhumerus -60.7382 53.0258 -64.107
rradius 72.0377
rwrist -21.4433
rhand -7.13406 -41.0994
rfingers 7.12502
rthumb 18.7419 -70.2165
lclavicle 1.85367e-014 -1.23246e-014
lhumerus -50.9366 -64.3909 56.1207
lradius 66.2718
lwrist 45.3704
lhand -15.4961 -26.5179
lfingers 7.12502
lthumb 10.6862 3.19029
rfemur -78.7609 -5.51607 22.7534
rtibia 40.6516
rfoot 38.1823 -1.65779
rtoes 7.62451
lfemur -55.0154 -1.23877 -30.6779
ltibia 58.3535
lfoot -24.022 4.72983
ltoes 15.8341
543
root 4.53612 15.8548 2.20456 22.4505 -8.02514 0.260092
lowerback 12.0572 -1.98179 2.27538
upperback 2.94568 -2.32018 0.447268
thorax -3.73954 -1.16269 -0.465522
lowerneck -13.5516 -0.734971 -3.17628
upperneck 34.9019 0.248511 -1.54102
head 14.2165 -0.561265 -0.0361258
rclavicle 1.96797e-014 -3.72721e-015
rhumerus -60.9807 53.3471 -64.3382
rradius 72.0571
rwrist -21.3696
rhand -6.88751 -41.6766
rfingers 7.12502
rthumb 18.979 -70.7706
lclavicle 1.96797e-014 -3.72721e-015
lhumerus -51.5158 -64.6788 56.3625
lradius 66.3217
lwrist 45.5195
lhand -15.9724 -26.8944
lfingers 7.12502
lthumb 10.2267 2.83697
rfemur -78.7918 -5.59645 22.9055
rtibia 40.8548
rfoot 36.9427 -0.619133
rtoes 2.44166
lfemur -54.9697 -1.1724 -30.6327
ltibia 58.4484
lfoot -24.0924 4.69739
ltoes 15.7203
544
root 4.53716 15.848 2.20249 22.4224 -7.87832 0.299708
lowerback 12.1585 -2.04859 2.37386
upperback 2.91518 -2.39268 0.435084
thorax -3.83331 -1.19979 -0.518152
lowerneck -13.3425 -0.668827 -3.11849
upperneck 34.9281 0.35806 -1.6539
head 14.1808 -0.521812 -0.074362
rclavicle 6.56486e-014 -2.06736e-014
rhumerus -61.4962 53.7205 -64.5657
rradius 72.2254
rwrist -21.4097
rhand -6.39674 -42.2115
rfingers 7.12502
rthumb 19.4509 -71.2586
lclavicle 6.56486e-014 -2.06736e-014
lhumerus -52.3098 -65.2816 56.8561
lradius 66.4295
lwrist 45.7467
lhand -16.5764 -27.1875
lfingers 7.12502
lthumb 9.6441 2.57176
rfemur -78.9383 -5.78666 22.976
rtibia 41.058
rfoot 38.179 -0.0241864
rtoes 5.7691
lfemur -54.9907 -1.25641 -30.6551
ltibia 58.5455
lfoot -24.1138 4.6468
ltoes 15.8008
545
root 4.53443 15.8412 2.19224 22.4487 -7.69456 0.375618
lowerback 12.3622 -2.07268 2.39922
upperback 2.86668 -2.41454 0.414252
thorax -3.99829 -1.21194 -0.542456
lowerneck -13.4378 -0.646275 -3.08505
upperneck 35.0495 0.36848 -1.59415
head 14.257 -0.507009 -0.0556326
rclavicle -7.15625e-015 -1.15295e-014
rhumerus -62.1401 54.191 -64.766
rradius 72.5195
rwrist -21.7674
rhand -6.18313 -42.3638
rfingers 7.12502
rthumb 19.6563 -71.3901
lclavicle -7.15625e-015 -1.15295e-014
lhumerus -52.6373 -65.801 56.9879
lradius 66.5157
lwrist 45.9316
lhand -16.5455 -26.7234
lfingers 7.12502
lthumb 9.6739 3.03446
rfemur -79.1483 -5.92174 22.9264
rtibia 41.2565
rfoot 36.945 -0.528033
rtoes 2.38913
lfemur -55.1335 -1.3324 -30.6992
ltibia 58.6566
lfoot -24.097 4.5229
ltoes 15.7576
546
root 4.53151 15.8356 2.18952 22.4902 -7.60956 0.312842
lowerback 12.4841 -1.96977 2.5342
upperback 2.92524 -2.26161 0.355781
thorax -4.00667 -1.13755 -0.700743
lowerneck -13.9063 -0.771013 -2.98419
upperneck 35.2686 0.118876 -1.40616
head 14.4643 -0.578207 -0.0396133
rclavicle 2.35808e-014 -1.36664e-014
rhumerus -62.679 54.2421 -65.062
rradius 72.5644
rwrist -22.2173
rhand -6.50112 -42.0436
rfingers 7.12502
rthumb 19.3506 -71.1008
lclavicle 2.35808e-014 -1.36664e-014
lhumerus -51.8324 -66.1424 56.1417
lradius 66.4581
lwrist 45.7105
lhand -16.007 -26.1766
lfingers 7.12502
lthumb 10.1934 3.55642
rfemur -79.2912 -5.93191 23.0063
rtibia 41.4106
rfoot 38.0945 -0.829763
rtoes 6.66033
lfemur -55.2694 -1.28744 -30.6312
ltibia 58.7648
lfoot -24.0988 4.40795
ltoes 15.6487
547
root 4.53353 15.832 2.19384 22.4751 -7.56699 0.194219
lowerback 12.476 -2.02722 2.66806
upperback 2.90902 -2.31741 0.415478
thorax -4.02366 -1.1663 -0.704639
lowerneck -13.7629 -0.744894 -3.162
upperneck 35.2894 0.167964 -1.31232
head 14.4415 -0.568901 0.0382623
rclavicle 2.60905e-014 -1.76421e-014
rhumerus -63.1274 54.7608 -65.3892
rradius 72.507
rwrist -22.4795
rhand -6.77466 -41.4595
rfingers 7.12502
rthumb 19.0875 -70.5428
lclavicle 2.60905e-014 -1.76421e-014
lhumerus -52.4262 -65.9414 56.5237
lradius 66.2998
lwrist 45.0907
lhand -15.9701 -26.6829
lfingers 7.12502
lthumb 10.229 3.04836
rfemur -79.3423 -6.03263 23.28
rtibia 41.5599
rfoot 38.0447 -0.759048
rtoes 6.63372
lfemur -55.2791 -1.24914 -30.5259
ltibia 58.8728
lfoot -24.1719 4.33696
ltoes 15.8752
548
root 4.53733 15.8344 2.19316 22.4576 -7.44828 0.168043
lowerback 12.5109 -2.14438 2.76444
upperback 2.85019 -2.45478 0.459039
thorax -4.1111 -1.2357 -0.688665
lowerneck -13.4715 -0.687385 -3.30822
upperneck 35.2196 0.261754 -1.2697
head 14.3425 -0.541655 0.0975816
rclavicle -2.12203e-014 1.76918e-014
rhumerus -63.6629 55.1709 -65.7294
rradius 72.5796
rwrist -22.2897
rhand -6.86108 -41.237
rfingers 7.12502
rthumb 19.0044 -70.3285
lclavicle -2.12203e-014 1.76918e-014
lhumerus -53.3612 -65.8208 57.1589
lradius 66.2574
lwrist 44.7084
lhand -16.7696 -27.3095
lfingers 7.12502
lthumb 9.45765 2.45828
rfemur -79.3805 -6.25846 23.4977
rtibia 41.6904
rfoot 38.0849 -0.737636
rtoes 7.20168
lfemur -55.246 -1.30593 -30.4988
ltibia 58.9258
lfoot -24.2119 4.29711
ltoes 16.0449
549
root 4.53791 15.8295 2.19232 22.515 -7.39349 0.197028
lowerback 12.5765 -2.2248 2.72281
upperback 2.75164 -2.56009 0.491809
thorax -4.2507 -1.28871 -0.609263
lowerneck -13.1745 -0.643905 -3.52822
upperneck 35.1019 0.312965 -1.11045
head 14.2204 -0.52551 0.210484
rclavicle -1.54058e-015 -1.08835e-014
rhumerus -64.1538 55.418 -66.0079
rradius 72.6756
rwrist -21.9066
rhand -7.00307 -41.3193
rfingers 7.12502
rthumb 18.8679 -70.4242
lclavicle -1.54058e-015 -1.08835e-014
lhumerus -54.3825 -65.7594 57.8904
lradius 66.3084
lwrist 44.6014
lhand -17.3484 -27.409
lfingers 7.12502
lthumb 8.89913 2.38336
rfemur -79.5698 -6.39732 23.6125
rtibia 41.8462
rfoot 36.9257 -1.21192
rtoes 4.3067
lfemur -55.3419 -1.36057 -30.5288
ltibia 58.9665
lfoot -24.1889 4.30901
ltoes 15.8904
550
root 4.53634 15.8274 2.19204 22.5686 -7.48451 0.287748
lowerback 12.6001 -2.20318 2.56078
upperback 2.66001 -2.55093 0.478759
thorax -4.35327 -1.28392 -0.530359
lowerneck -12.9359 -0.631523 -3.58757
upperneck 35.0805 0.343864 -1.1379
head 14.1568 -0.522801 0.215217
rclavicle -4.17945e-014 -1.2424e-014
rhumerus -64.5732 55.4145 -66.3098
rradius 72.5914
rwrist -21.5531
rhand -7.39027 -41.0079
rfingers 7.12502
rthumb 18.4954 -70.1486
lclavicle -4.17945e-014 -1.2424e-014
lhumerus -55.1685 -65.8962 58.4591
lradius 66.3139
lwrist 44.6463
lhand -16.4502 -27.2189
lfingers 7.12502
lthumb 9.76581 2.53469
rfemur -79.7712 -6.37989 23.5567
rtibia 42.0246
rfoot 38.2731 -1.44622
rtoes 8.96692
lfemur -55.429 -1.36042 -30.6322
ltibia 58.9575
lfoot -24.1744 4.34034
ltoes 15.8325
